<svg width="8" height="8" viewBox="0 0 8 8" fill="none" xmlns="http://www.w3.org/2000/svg">
<g clip-path="url(#clip0_1_120)">
<path d="M3.99999 7.99999C3.20887 7.99999 2.43551 7.7654 1.77771 7.32587C1.11992 6.88635 0.607227 6.26163 0.304476 5.53073C0.00172551 4.79982 -0.0774878 3.99556 0.0768531 3.21963C0.231194 2.44371 0.612157 1.73098 1.17157 1.17157C1.73098 0.612157 2.44371 0.231194 3.21963 0.0768531C3.99556 -0.0774878 4.79982 0.00172551 5.53073 0.304476C6.26163 0.607227 6.88635 1.11992 7.32587 1.77771C7.7654 2.43551 7.99999 3.20887 7.99999 3.99999C7.99885 5.06051 7.57705 6.07726 6.82716 6.82716C6.07726 7.57705 5.06051 7.99885 3.99999 7.99999ZM3.99999 0.666661C3.34072 0.666661 2.69626 0.862157 2.14809 1.22843C1.59993 1.5947 1.17269 2.1153 0.920396 2.72438C0.668104 3.33347 0.602093 4.00369 0.73071 4.6503C0.859327 5.2969 1.1768 5.89084 1.64297 6.35702C2.10915 6.82319 2.70309 7.14066 3.34969 7.26928C3.9963 7.3979 4.66652 7.33189 5.27561 7.07959C5.88469 6.8273 6.40529 6.40006 6.77156 5.8519C7.13783 5.30373 7.33333 4.65927 7.33333 3.99999C7.33236 3.11624 6.98086 2.26895 6.35595 1.64404C5.73103 1.01913 4.88375 0.667631 3.99999 0.666661Z" fill="#9A9A9A"/>
<path d="M4.66667 6.33334H4V4H3.33334V3.33334H4C4.17681 3.33334 4.34638 3.40357 4.47141 3.5286C4.59643 3.65362 4.66667 3.82319 4.66667 4V6.33334Z" fill="#9A9A9A"/>
<path d="M4 2.66666C4.27614 2.66666 4.5 2.44281 4.5 2.16666C4.5 1.89052 4.27614 1.66666 4 1.66666C3.72386 1.66666 3.5 1.89052 3.5 2.16666C3.5 2.44281 3.72386 2.66666 4 2.66666Z" fill="#9A9A9A"/>
</g>
<defs>
<clipPath id="clip0_1_120">
<rect width="8" height="8" fill="white"/>
</clipPath>
</defs>
</svg>
